<?xml version="1.0" encoding="UTF-8"?>
<svg id="Layer_1" data-name="Layer 1" xmlns="http://www.w3.org/2000/svg" xmlns:xlink="http://www.w3.org/1999/xlink" viewBox="0 0 2498.25 1036.13">
  <defs>
    <style>
      .cls-1 {
        mask: url(#mask);
      }

      .cls-2 {
        fill: #fff;
      }

      .cls-2, .cls-3 {
        fill-rule: evenodd;
      }

      .cls-3 {
        fill: #5433ff;
      }
    </style>
    <mask id="mask" x="0" y="0" width="2498.25" height="1036.13" maskUnits="userSpaceOnUse">
      <g id="b">
        <path id="a" class="cls-2" d="M.33,0h2497.91v1036.13H.33V0Z"/>
      </g>
    </mask>
  </defs>
  <g class="cls-1">
    <path class="cls-3" d="M261.06,466.08c-53.83-19.91-83.34-35.4-83.34-59.73,0-20.65,16.96-32.45,47.2-32.45,55.31,0,112.09,21.39,151.18,40.56l22.12-136.43c-30.97-14.75-94.4-39.09-182.15-39.09-61.95,0-113.57,16.22-150.44,46.46-38.35,31.71-58.26,77.43-58.26,132.74,0,100.29,61.21,143.07,160.77,179.2,64.16,22.86,85.55,39.09,85.55,64.16s-20.65,38.35-58.26,38.35c-46.46,0-123.15-22.86-173.3-52.36L0,785.4c42.77,24.34,122.42,49.41,205.02,49.41,65.63,0,120.2-15.49,157.08-44.98,41.29-32.45,62.68-80.38,62.68-142.33,0-102.51-62.68-145.28-163.72-181.42h0ZM784.94,385.69l22.12-135.69h-116.8V85.28l-157.04,25.84-22.68,138.88-55.23,8.96-20.67,126.73h75.68v266.23c0,69.32,17.7,117.26,53.83,146.75,30.24,24.34,73.74,36.13,134.96,36.13,47.2,0,75.96-8.11,95.87-13.27v-143.81c-11.06,2.95-36.13,8.11-53.1,8.11-36.13,0-51.62-18.43-51.62-60.47v-239.68h94.67ZM1135.69,242.07c-51.62,0-92.92,27.1-109.14,75.77l-11.06-67.85h-160.03v573.74h182.89v-372.42c22.87-28.03,55.31-38.16,99.56-38.16,9.59,0,19.91,0,32.45,2.21v-168.88c-12.54-2.95-23.6-4.42-34.66-4.42ZM1306.79,193.21c53.1,0,95.87-43.51,95.87-96.6S1359.88,0,1306.79,0s-96.61,42.77-96.61,96.61,42.77,96.6,96.61,96.6h0ZM1214.6,250h183.63v573.74h-183.63V250ZM1918.6,301.62c-32.45-42.04-77.43-62.68-134.96-62.68-53.1,0-99.56,22.12-143.07,68.58l-9.59-57.52h-160.77v786.13l182.89-30.23v-184.37c28.02,8.85,56.78,13.27,82.59,13.27,45.72,0,112.1-11.8,163.72-67.84,49.41-53.84,74.49-137.17,74.49-247.05,0-97.35-18.44-171.09-55.31-218.29h0ZM1766.68,655.6c-14.75,28.03-37.61,42.78-64.16,42.78-18.43,0-34.66-3.69-49.41-11.06v-272.87c30.97-32.44,58.99-36.13,69.32-36.13,46.46,0,69.32,50.15,69.32,148.23,0,56.05-8.11,99.56-25.07,129.05h0ZM2498.25,531.71c0-91.44-19.91-163.72-59-214.6-39.82-51.62-99.56-78.17-175.51-78.17-155.61,0-252.21,115.04-252.21,299.41,0,103.25,25.81,180.68,76.69,230.09,45.72,44.25,111.36,66.37,196.17,66.37,78.17,0,150.44-18.43,196.17-48.67l-19.91-125.37c-44.99,24.34-97.35,37.61-156.34,37.61-35.4,0-59.73-7.38-77.43-22.87-19.18-16.22-30.24-42.77-33.92-80.38h303.1c.74-8.85,2.21-50.15,2.21-63.42h0ZM2191.46,483.04c5.16-81.86,27.28-120.2,69.32-120.2s62.69,39.09,65.64,120.2h-134.96Z"/>
  </g>
</svg>